<?xml version="1.0" encoding="UTF-8"?>
<svg width="466px" height="129px" viewBox="0 0 466 129" version="1.1" xmlns="http://www.w3.org/2000/svg" xmlns:xlink="http://www.w3.org/1999/xlink">
    <title>logo-wietzman-footer</title>
    <g id="Page-1" stroke="none" stroke-width="1" fill="none" fill-rule="evenodd">
        <g id="logo-wietzman-footer" fill="#f5f4f0" fill-rule="nonzero">
            <path d="M101.75,21.41 L101.75,21.41 C101.918871,21.5321856 102.070269,21.6768549 102.2,21.84 C102.323979,22.0299324 102.386798,22.2532867 102.38,22.48 C102.388037,22.7037394 102.325026,22.9242786 102.2,23.11 C102.073186,23.2786425 101.92145,23.4270071 101.75,23.55 C101.5,23.74 101.26,23.93 101.26,24.25 L101.26,26.25 L78.0600003,26.25 L78.0600003,24.25 C78.0600003,23.93 77.8200003,23.74 77.5700003,23.55 C77.398551,23.4270071 77.2468144,23.2786425 77.1200003,23.11 C76.9887655,22.9234386 76.9252537,22.6976186 76.9400003,22.47 C76.9275485,22.2457448 76.9909536,22.0238271 77.1200003,21.84 C77.2497317,21.6768549 77.4011298,21.5321856 77.5700003,21.41 C77.8200003,21.21 78.0600003,21.03 78.0600003,20.71 L78.0600003,14.29 C78.0600003,13.97 77.8200003,13.79 77.5700003,13.59 C77.4011298,13.4678144 77.2497317,13.3231451 77.1200003,13.16 C76.9887655,12.9734386 76.9252537,12.7476186 76.9400003,12.52 C76.9275485,12.2957448 76.9909536,12.0738271 77.1200003,11.89 C77.2468144,11.7213575 77.398551,11.5729929 77.5700003,11.45 C77.8200003,11.26 78.0600003,11.07 78.0600003,10.75 L78.0600003,8.75 L78.3500003,8.75 C79.4904834,8.83404363 80.6366493,8.70518475 81.7300003,8.37 C82.0790711,8.21686034 82.4137388,8.03279306 82.7300003,7.82 C83.5119845,7.21439098 84.4619596,6.86513542 85.4500003,6.82 C86.3722693,6.87270356 87.2755866,7.10362679 88.1100003,7.5 C88.568965,7.7468423 89.0657135,7.91580436 89.5800003,8 L89.7400003,8 C90.2578658,7.93811592 90.761592,7.78936457 91.2300003,7.56 C92.0644139,7.16362679 92.9677312,6.93270356 93.8900003,6.88 C94.8780409,6.92513542 95.8280161,7.27439098 96.6100003,7.88 C96.9262617,8.09279306 97.2609295,8.27686034 97.6100003,8.43 C98.7033513,8.76518475 99.8495171,8.89404363 100.99,8.81 L101.28,8.81 L101.28,10.81 C101.28,11.13 101.52,11.32 101.77,11.51 C101.943659,11.6303387 102.09579,11.7790893 102.22,11.95 C102.346435,12.1388084 102.40948,12.3629656 102.4,12.59 C102.405388,12.8134088 102.342602,13.0331596 102.22,13.22 C102.090269,13.3831451 101.938871,13.5278144 101.77,13.65 C101.52,13.85 101.28,14.03 101.28,14.35 L101.28,20.77 C101.28,21.09 101.52,21.27 101.77,21.47 M73.3000003,24.76 C72.0179894,26.5976281 70.0893534,27.8833854 67.9000003,28.36 C67.2134393,28.4831672 66.517514,28.5467373 65.8200003,28.55 L65.8200003,28.55 C62.2100003,28.55 58.8200003,26.97 55.4700003,25.22 L54.2100003,24.54 C52.0000003,23.35 49.0000003,21.7 46.4600003,21.7 C45.7387811,21.6853715 45.0248585,21.8466906 44.3800003,22.17 L44.2700003,22.23 L44.2700003,22.35 C44.2540935,22.6710796 44.1900456,22.9879484 44.0800003,23.29 C43.5201991,24.3774195 42.6989171,25.308664 41.6900003,26 C40.1025377,27.3006497 38.1397004,28.0577441 36.0900003,28.16 C35.7742611,28.1670816 35.4596614,28.1197225 35.1600003,28.02 C34.7635576,27.8827085 34.415945,27.6324274 34.1600003,27.3 C34.0297742,27.1368345 33.9252353,26.9547345 33.8500003,26.76 C33.7797863,26.5973579 33.7326632,26.4256953 33.7100003,26.25 L33.7100003,26.12 L33.5800003,26.12 C32.8111727,25.9931161 32.2287626,25.3570086 32.1700003,24.58 C32.2520794,24.0252862 32.5242497,23.5162923 32.9400003,23.14 C33.5200003,22.44 34.0300003,21.84 33.2000003,21.05 C33.1234735,20.9722753 33.0397674,20.9019623 32.9500003,20.84 C32.8279706,20.7577583 32.7141153,20.6639952 32.6100003,20.56 C31.8800003,19.78 32.3100003,18.15 32.6100003,17.18 L32.6100003,17.08 C32.9211208,15.9150188 33.3604725,14.788132 33.9200003,13.72 C34.6669351,11.9923272 35.747595,10.4291084 37.1000003,9.12 C37.1325797,9.10997436 37.1674208,9.10997436 37.2000003,9.12 C37.2323925,9.13093895 37.260429,9.15196632 37.2800003,9.18 C37.2800003,9.18 37.4600003,9.45 37.6800003,9.81 L37.9100003,10.2 L38.0000003,9.7 C38.2518801,8.70622214 38.9552473,7.88809509 39.9000003,7.49 C40.669009,7.26661492 41.4986794,7.43479136 42.1200003,7.94 L42.3000003,8.08 L42.4200003,7.89 C42.760347,7.2987874 43.378564,6.92182579 44.0600003,6.89 C44.8624182,6.91881063 45.6163792,7.28129185 46.1400003,7.89 L46.2700003,8.03 L46.4200003,7.9 C47.132804,7.24305368 48.0707509,6.88505871 49.0400003,6.9 C49.7773912,7.03158138 50.3794461,7.5641684 50.6000003,8.28 L50.6700003,8.51 L50.8900003,8.41 C51.6145472,7.99405103 52.5054533,7.99405103 53.2300003,8.41 C53.6948266,8.73563338 53.9288258,9.30113138 53.8300003,9.86 L53.8300003,10.13 L54.1000003,10.08 C55.0224446,9.84895735 55.9998943,10.0555128 56.7500003,10.64 C57.2181771,11.1537056 57.4213677,11.8556368 57.3000003,12.54 L57.3000003,12.81 L57.5600003,12.81 C58.2410963,12.6600699 58.9479767,12.9125272 59.3800003,13.46 C59.592182,13.9079816 59.6208905,14.4211472 59.4600003,14.89 L59.4000003,15.1 L59.6100003,15.1 C60.0900954,15.1705934 60.5088359,15.4633412 60.7400003,15.89 C60.8612456,16.4499696 60.8196043,17.0329482 60.6200003,17.57 L60.5700003,17.75 L60.7400003,17.83 C61.2278951,18.0153897 61.6326261,18.3704168 61.8800003,18.83 C62.1846346,19.5003468 62.1846346,20.2696532 61.8800003,20.94 L61.8300003,21.07 L61.9400003,21.17 C62.7100003,21.85 63.4900003,22.48 64.2500003,23.04 C65.7900003,24.16 68.2000003,24.76 69.8400003,23.41 C70.4798104,22.8271224 70.741967,21.9365608 70.5200003,21.1 C70.3698504,20.3426182 69.7628121,19.759542 69.0000003,19.64 C67.7700003,19.37 66.7900003,20.54 66.0000003,21.73 C65.9751809,21.7710486 65.9266235,21.7912808 65.8800003,21.78 C65.8364028,21.7766293 65.79809,21.7498104 65.7800003,21.71 C65.0500003,19.96 65.0100003,18.5 65.6700003,17.39 C66.3507467,16.368596 67.4496415,15.7019332 68.6700003,15.57 L68.8500003,15.57 L68.8500003,15.39 C68.8500003,13.31 69.3200003,11.8 70.3200003,10.89 C71.3218194,10.0526162 72.652329,9.72091014 73.9300003,9.99 C73.9538094,9.98680158 73.9780391,9.99026297 74.0000003,10 C74.0150084,10.0351309 74.0150084,10.0748691 74.0000003,10.11 C72.6200003,13.44 73.0000003,14.68 73.7100003,17.41 C73.7800003,17.65 73.8500003,17.9 73.9200003,18.17 C74.6548034,20.3498333 74.4256548,22.7395257 73.2900003,24.74 M28.8900003,21.41 L28.8900003,21.41 C29.055746,21.532414 29.2038089,21.6771118 29.3300003,21.84 C29.4569211,22.0290583 29.5231996,22.2523123 29.5200003,22.48 C29.5244151,22.7047444 29.4579371,22.9251712 29.3300003,23.11 C29.2071875,23.2787241 29.0587244,23.4271873 28.8900003,23.55 C28.6400003,23.74 28.4000003,23.93 28.4000003,24.25 L28.4000003,26.25 L5.20000026,26.25 L5.20000026,24.25 C5.20000026,23.93 4.96000026,23.74 4.71000026,23.55 C4.53941739,23.4293768 4.39062348,23.2805829 4.27000026,23.11 C4.14003175,22.9223898 4.07345676,22.6981372 4.08000026,22.47 C4.07820122,22.245623 4.1444461,22.0259689 4.27000026,21.84 C4.39361167,21.6748313 4.54203395,21.5297823 4.71000026,21.41 C4.97000026,21.21 5.20000026,21.03 5.20000026,20.71 L5.20000026,14.29 C5.20000026,13.97 4.96000026,13.79 4.71000026,13.59 C4.54203395,13.4702177 4.39361167,13.3251687 4.27000026,13.16 C4.14307947,12.9709417 4.07680095,12.7476877 4.08000026,12.52 C4.07558547,12.2952556 4.14206338,12.0748288 4.27000026,11.89 C4.39062348,11.7194171 4.53941739,11.5706232 4.71000026,11.45 C4.97000026,11.26 5.20000026,11.07 5.20000026,10.75 L5.20000026,8.75 L5.50000026,8.75 C6.63718035,8.83349508 7.77996834,8.70463471 8.87000026,8.37 C9.2177481,8.21419068 9.55219269,8.03024615 9.87000026,7.82 C10.6510177,7.2126468 11.6015664,6.86318037 12.5900003,6.82 C13.5118844,6.87517706 14.4147372,7.10598153 15.2500003,7.5 C15.7109799,7.75037519 16.2116262,7.91951245 16.7300003,8 L16.8800003,8 C17.4010941,7.93827913 17.9081355,7.78954699 18.3800003,7.56 C19.199284,7.15473947 20.0886737,6.91032703 21.0000003,6.84 C21.9911076,6.88503751 22.9443029,7.23419332 23.7300003,7.84 C24.0462617,8.05279306 24.3809295,8.23686034 24.7300003,8.39 C25.8200322,8.72463471 26.9628202,8.85349508 28.1000003,8.77 L28.4000003,8.77 L28.4000003,10.77 C28.4000003,11.09 28.6400003,11.28 28.8900003,11.47 C29.0587244,11.5928127 29.2071875,11.7412759 29.3300003,11.91 C29.4599688,12.0976102 29.5265438,12.3218628 29.5200003,12.55 C29.5217993,12.774377 29.4555544,12.9940311 29.3300003,13.18 C29.2038089,13.3428882 29.055746,13.487586 28.8900003,13.61 C28.6400003,13.81 28.4000003,13.99 28.4000003,14.31 L28.4000003,20.73 C28.4000003,21.05 28.6400003,21.23 28.8800003,21.43 M0.700000264,1.23 C0.700000264,1.23 0.840000264,33.29 0.700000264,33.13 L105.77,33.13 L105.77,1.23 L0.700000264,1.23 Z" id="Shape"></path>
            <path d="M105,1.89 L1.48000026,1.89 L1.48000026,32.39 L105,32.39 L105,1.89 M105,53.49 L105,33.87 L1.47973318,33.87 L1.47973318,53.49 C1.46089421,62.49069 3.47788535,71.3791255 7.38000026,79.49 L53.2300003,35.29 L99.0900003,79.52 C102.992115,71.4091255 105.009106,62.52069 104.99,53.52 M84.4500003,71.23 C80.8880725,67.6693825 75.1142179,67.6700905 71.5531635,71.2315816 C67.9921092,74.7930727 67.9921092,80.5669273 71.5531635,84.1284184 C75.1142179,87.6899095 80.8880725,87.6906175 84.4500003,84.13 C88.0076476,80.5658637 88.0076476,74.7941363 84.4500003,71.23 M53.2300003,64.230011 C56.9196033,64.2340456 60.248154,62.0145958 61.6629081,58.6070076 C63.0776622,55.1994193 62.299864,51.2751057 59.6923506,48.6647301 C57.0848373,46.0543545 53.1613793,45.2722514 49.752241,46.6832662 C46.3431027,48.094281 44.1200003,51.4203948 44.1200003,55.11 C44.1200003,60.1429343 48.197069,64.2244814 53.2300003,64.230011 M82.6200003,101.82 L53.2300003,70.57 L23.8400003,101.77 C24.1400003,102.06 24.4400003,102.35 24.7400003,102.62 C37.0500003,114.04 49.8100003,119.79 53.2300003,120.62 C56.6500003,119.76 69.4100003,114.01 81.7200003,102.62 C82.0200003,102.35 82.3200003,102.06 82.6200003,101.77 M34.9100003,84.13 C37.520538,81.5225473 38.3027835,77.599027 36.8918129,74.1897926 C35.4808424,70.7805582 32.1546773,68.5573746 28.4650003,68.5573746 C24.7753232,68.5573746 21.4491581,70.7805582 20.0381876,74.1897926 C18.6272171,77.599027 19.4094625,81.5225473 22.0200003,84.13 C25.5829827,87.680998 31.3470179,87.680998 34.9100003,84.13 M106.460735,53.48 C106.54,76.74 93.6000003,93.63 82.7300003,103.71 C70.8800003,114.71 57.5300003,121.23 53.3400003,122.15 L53.2300003,122.15 L53.1300003,122.15 C48.9300003,121.23 35.5900003,114.69 23.7400003,103.71 C12.8700003,93.63 -0.0699997364,76.74 -0.000562999999,53.48 L-0.000562999999,0.41 L106.460735,0.41 L106.460735,53.48 M78.4600003,14.29 L78.4600003,20.71 C78.4249514,21.1468728 78.1784748,21.5389947 77.8000003,21.76 C77.66737,21.8517333 77.54937,21.9629904 77.4500003,22.09 C77.3691442,22.1994728 77.330126,22.3342631 77.3400003,22.47 L77.3400003,22.47 C77.3310013,22.6056436 77.369934,22.7401385 77.4500003,22.85 C77.54937,22.9770096 77.66737,23.0882667 77.8000003,23.18 C78.1809608,23.3984266 78.428353,23.7920051 78.4600003,24.23 L78.4600003,25.66 L100.78,25.66 L100.78,24.25 C100.811647,23.8120051 101.05904,23.4184266 101.44,23.2 C101.572631,23.1082667 101.690631,22.9970096 101.79,22.87 C101.870067,22.7601385 101.908999,22.6256436 101.9,22.49 L101.9,22.49 C101.909875,22.3542631 101.870856,22.2194728 101.79,22.11 C101.690631,21.9829904 101.572631,21.8717333 101.44,21.78 C101.061526,21.5589947 100.815049,21.1668728 100.78,20.73 L100.78,14.29 C100.830424,13.8713956 101.074927,13.5009357 101.44,13.29 C101.572631,13.1982667 101.690631,13.0870096 101.79,12.96 C101.870856,12.8505272 101.909875,12.7157369 101.9,12.58 L101.9,12.58 C101.908999,12.4443564 101.870067,12.3098615 101.79,12.2 C101.690631,12.0729904 101.572631,11.9617333 101.44,11.87 C101.05904,11.6515734 100.811647,11.2579949 100.78,10.82 L100.78,9.26 L100.78,9.26 C100.2,9.26 99.6400003,9.26 99.1100003,9.26 L99.1100003,24 L91.0000003,24 C90.8340486,24.5916363 90.2944702,25.0004078 89.6800003,25 C89.0669232,25.0027955 88.5289414,24.5921224 88.3700003,24 L80.2200003,24 L80.2200003,9.21 C79.6900003,9.21 79.1300003,9.21 78.5500003,9.21 L78.5500003,9.21 L78.5500003,10.7 C78.518353,11.1379949 78.2709608,11.5315734 77.8900003,11.75 C77.75737,11.8417333 77.63937,11.9529904 77.5400003,12.08 C77.459934,12.1898615 77.4210013,12.3243564 77.4300003,12.46 L77.4300003,12.46 C77.420126,12.5957369 77.4591442,12.7305272 77.5400003,12.84 C77.63937,12.9670096 77.75737,13.0782667 77.8900003,13.17 C78.2550732,13.3809357 78.4995768,13.7513956 78.5500003,14.17 M81.0000003,22.74 C81.596711,22.6628353 82.1985684,22.6327425 82.8000003,22.65 C83.8092829,22.6969672 84.8200039,22.5958951 85.8000003,22.35 L86.8000003,22.04 C87.6123526,21.7361818 88.453274,21.515063 89.3100003,21.38 L89.3900003,21.38 L89.3900003,8.47 C88.8729461,8.37411545 88.3693203,8.21631272 87.8900003,8 C87.1200113,7.62558487 86.2844394,7.40480368 85.4300003,7.35 C84.5464612,7.39169579 83.6975416,7.70611043 83.0000003,8.25 C82.6830584,8.47030683 82.3486074,8.66428845 82.0000003,8.83 C81.6770355,8.95937705 81.342074,9.05651589 81.0000003,9.12 L81.0000003,22.74 Z M90.1000003,21.37 L90.1000003,21.37 C90.9602878,21.5035921 91.8046732,21.7247406 92.6200003,22.03 L93.6200003,22.34 C94.5999966,22.5858951 95.6107177,22.6869672 96.6200003,22.64 C97.221429,22.6230303 97.8232639,22.653122 98.4200003,22.73 L98.4200003,9.12 C98.0766485,9.06200294 97.7411091,8.96469652 97.4200003,8.83 C97.0713932,8.66428845 96.7369421,8.47030683 96.4200003,8.25 C95.717272,7.7113401 94.864779,7.4038836 93.9800003,7.37 C93.0965297,7.4081049 92.2295697,7.62229503 91.4300003,8 C90.9888694,8.19371308 90.5300771,8.34441131 90.0600003,8.45 L90.1000003,21.37 Z M77.8800003,20.71 L77.8800003,14.29 C77.8800003,14.08 77.7400003,13.96 77.4800003,13.76 C77.2902437,13.6294117 77.1244729,13.4670239 76.9900003,13.28 C76.8365535,13.0565623 76.7561943,12.7910274 76.7600003,12.52 C76.7549061,12.2518949 76.8354793,11.9891564 76.9900003,11.77 C77.1221637,11.5810062 77.2883219,11.418239 77.4800003,11.29 C77.7400003,11.08 77.8800003,10.96 77.8800003,10.75 L77.8800003,8.51 L78.3900003,8.51 C79.5000277,8.58707497 80.6148202,8.46170317 81.6800003,8.14 C82.0300069,7.99676626 82.3649737,7.81923384 82.6800003,7.61 C83.4986627,6.99471123 84.4865171,6.64564607 85.5100003,6.61 C86.4596313,6.65884846 87.3904944,6.8932629 88.2500003,7.3 C88.6940204,7.51771351 89.1700524,7.66288639 89.6600003,7.73 L89.8200003,7.73 C90.3099481,7.66288639 90.7859801,7.51771351 91.2300003,7.3 C92.0895061,6.8932629 93.0203692,6.65884846 93.9700003,6.61 C94.9934834,6.64564607 95.9813378,6.99471123 96.8000003,7.61 C97.1150268,7.81923384 97.4499937,7.99676626 97.8000003,8.14 C98.8651803,8.46170317 99.9799728,8.58707497 101.09,8.51 L101.59,8.51 L101.59,10.75 C101.59,10.96 101.74,11.08 102,11.29 C102.192703,11.4204609 102.361786,11.5827804 102.5,11.77 C102.647364,11.9920587 102.724061,12.2535234 102.720296,12.52 C102.723007,12.7894567 102.646482,13.0538164 102.5,13.28 C102.359006,13.4647574 102.190356,13.6266609 102,13.76 C101.74,13.96 101.59,14.08 101.59,14.29 L101.59,20.71 C101.59,20.92 101.74,21.04 102,21.24 C102.190356,21.3733391 102.359006,21.5352426 102.5,21.72 C102.646482,21.9461836 102.723007,22.2105433 102.720296,22.48 C102.724061,22.7464766 102.647364,23.0079413 102.5,23.23 C102.361786,23.4172196 102.192703,23.5795391 102,23.71 C101.74,23.92 101.59,24.04 101.59,24.25 L101.59,26.4 L101.59,26.4 L77.8300003,26.4 L77.8300003,24.25 C77.8300003,24.04 77.6900003,23.92 77.4300003,23.71 C77.2383219,23.581761 77.0721637,23.4189938 76.9400003,23.23 C76.7854793,23.0108436 76.7049061,22.7481051 76.7095646,22.48 C76.7061943,22.2089726 76.7865535,21.9434377 76.9400003,21.72 C77.0744729,21.5329761 77.2402437,21.3705883 77.4300003,21.24 C77.6900003,21.04 77.8300003,20.92 77.8300003,20.71 M5.64000026,14.29 L5.64000026,20.71 C5.61098693,21.1435292 5.37203912,21.535553 5.00000026,21.76 C4.86232359,21.8490077 4.74062138,21.9605681 4.64000026,22.09 C4.56755933,22.2034554 4.52936727,22.3353916 4.52998496,22.47 L4.52998496,22.47 C4.53099228,22.6043768 4.56905677,22.7358723 4.64000026,22.85 C4.73888848,22.9865802 4.86068922,23.1049976 5.00000026,23.2 C5.37839285,23.4195164 5.62224095,23.8134249 5.65000026,24.25 L5.65000026,25.68 L28.0000003,25.68 L28.0000003,24.25 C28.0277596,23.8134249 28.2716077,23.4195164 28.6500003,23.2 C28.7856133,23.1083498 28.9069258,22.9971467 29.0100003,22.87 C29.0809438,22.7558723 29.1190082,22.6243768 29.1200156,22.49 L29.1200156,22.49 C29.1206333,22.3553916 29.0824412,22.2234554 29.0100003,22.11 C28.9069258,21.9828533 28.7856133,21.8716502 28.6500003,21.78 C28.2685154,21.5539852 28.0247559,21.1527195 28.0000003,20.71 L28.0000003,14.29 C28.046685,13.872757 28.2876414,13.5020548 28.6500003,13.29 C28.7856133,13.1983498 28.9069258,13.0871467 29.0100003,12.96 C29.0824412,12.8465446 29.1206333,12.7146084 29.1200156,12.58 L29.1200156,12.58 C29.1190082,12.4456232 29.0809438,12.3141277 29.0100003,12.2 C28.9069258,12.0728533 28.7856133,11.9616502 28.6500003,11.87 C28.2510584,11.6373418 28.0040974,11.2118091 28.0000003,10.75 L28.0000003,9.26 L28.0000003,9.26 C27.4200003,9.26 26.8600003,9.26 26.3300003,9.26 L26.3300003,24 L18.1200003,24 C17.9702077,24.6015764 17.4299454,25.0238099 16.8100003,25.0238099 C16.1900552,25.0238099 15.6497928,24.6015764 15.5000003,24 L7.37000026,24 L7.37000026,9.21 C6.84000026,9.21 6.27000026,9.21 5.69000026,9.21 L5.64000026,9.21 L5.64000026,10.7 C5.6310665,11.1526206 5.38907116,11.5685501 5.00000026,11.8 C4.86232359,11.8890077 4.74062138,12.0005681 4.64000026,12.13 C4.56905677,12.2441277 4.53099228,12.3756232 4.52998496,12.51 L4.52998496,12.51 C4.52936727,12.6446084 4.56755933,12.7765446 4.64000026,12.89 C4.74062138,13.0194319 4.86232359,13.1309923 5.00000026,13.22 C5.36235915,13.4320548 5.60331555,13.802757 5.65000026,14.22 M8.10000026,22.74 C8.69673663,22.663122 9.29857151,22.6330303 9.90000026,22.65 C10.9092829,22.6969672 11.9200039,22.5958951 12.9000003,22.35 L13.9000003,22.04 C14.7153273,21.7347406 15.5597127,21.5135921 16.4200003,21.38 L16.4900003,21.38 L16.4900003,8.47 C15.9763607,8.37334149 15.4761363,8.2155526 15.0000003,8 C14.2335377,7.62563131 13.4012416,7.40481805 12.5500003,7.35 C11.6649664,7.38257 10.8120865,7.69016605 10.1100003,8.23 C9.77234163,8.4506949 9.41792583,8.64462053 9.05000026,8.81 C8.72798801,8.94212447 8.39273914,9.03934664 8.05000026,9.1 L8.10000026,22.74 Z M17.2000003,21.37 L17.2000003,21.37 C18.0567265,21.505063 18.8976479,21.7261818 19.7100003,22.03 L20.7100003,22.34 C21.6899966,22.5858951 22.7007177,22.6869672 23.7100003,22.64 C24.3114321,22.6227425 24.9132895,22.6528353 25.5100003,22.73 L25.5100003,9.12 C25.1664674,9.06279702 24.8308373,8.96546428 24.5100003,8.83 C24.1409979,8.6667937 23.7864093,8.47277352 23.4500003,8.25 C22.7451618,7.70821089 21.8884833,7.40050597 21.0000003,7.37 C20.1573107,7.42358139 19.3325744,7.63740192 18.5700003,8 C18.1300426,8.19676253 17.6709406,8.34756247 17.2000003,8.45 L17.2000003,21.37 Z M5.00000026,20.71 L5.00000026,14.29 C5.00000026,14.08 4.85000026,13.96 4.59000026,13.76 C4.40505229,13.6236683 4.24011598,13.462098 4.10000026,13.28 C3.94948421,13.0556779 3.87258846,12.7900381 3.88000026,12.52 C3.87127882,12.2529108 3.94838275,11.9900565 4.10000026,11.77 C4.2373568,11.5854733 4.40268098,11.4235231 4.59000026,11.29 C4.85000026,11.08 5.00000026,10.96 5.00000026,10.75 L5.00000026,8.51 L5.50000026,8.51 C6.61001338,8.58640798 7.72468604,8.46104966 8.79000026,8.14 C9.14020383,7.99718726 9.47521153,7.81963318 9.79000026,7.61 C10.6114325,6.99278082 11.6030725,6.64361183 12.6300003,6.61 C13.5764272,6.65885699 14.5040165,6.89330262 15.3600003,7.3 C15.8074577,7.51792809 16.2868135,7.66308513 16.7800003,7.73 L16.9300003,7.73 C17.4202488,7.66426098 17.8964976,7.51902197 18.3400003,7.3 C19.1770055,6.91239798 20.0792545,6.68513976 21.0000003,6.63 C22.0269281,6.66361183 23.018568,7.01278082 23.8400003,7.63 C24.1389155,7.83675886 24.4570512,8.01424508 24.7900003,8.16 C25.8553145,8.48104966 26.9699872,8.60640798 28.0800003,8.53 L28.5900003,8.53 L28.5900003,10.77 C28.5900003,10.98 28.7400003,11.1 29.0000003,11.31 C29.1873195,11.4435231 29.3526437,11.6054733 29.4900003,11.79 C29.6416178,12.0100565 29.7187217,12.2729108 29.7100003,12.54 C29.7174121,12.8100381 29.6405163,13.0756779 29.4900003,13.3 C29.3498845,13.482098 29.1849482,13.6436683 29.0000003,13.78 C28.7400003,13.98 28.5900003,14.1 28.5900003,14.31 L28.5900003,20.73 C28.5900003,20.94 28.7400003,21.06 29.0000003,21.26 C29.1849482,21.3963317 29.3498845,21.557902 29.4900003,21.74 C29.6405163,21.9643221 29.7174121,22.2299619 29.7100003,22.5 C29.7187217,22.7670892 29.6416178,23.0299435 29.4900003,23.25 C29.3526437,23.4345267 29.1873195,23.5964769 29.0000003,23.73 C28.7400003,23.94 28.5900003,24.06 28.5900003,24.27 L28.5900003,26.4 L28.5900003,26.4 L5.00000026,26.4 L5.00000026,26.4 L5.00000026,24.25 C5.00000026,24.04 4.85000026,23.92 4.59000026,23.71 C4.40268098,23.5764769 4.2373568,23.4145267 4.10000026,23.23 C3.94838275,23.0099435 3.87127882,22.7470892 3.88000026,22.48 C3.87258846,22.2099619 3.94948421,21.9443221 4.10000026,21.72 C4.24011598,21.537902 4.40505229,21.3763317 4.59000026,21.24 C4.85000026,21.04 5.00000026,20.92 5.00000026,20.71 M33.2700003,23.39 C32.9326996,23.692905 32.7013818,24.0959588 32.6100003,24.54 C32.6100003,25.34 33.6100003,25.62 33.8800003,25.69 L33.9400003,25.69 C36.0413729,25.9712158 38.150112,25.2273925 39.6100003,23.69 C39.7442661,23.5899578 39.9313809,23.6025613 40.0510177,23.7197056 C40.1706545,23.83685 40.187194,24.023658 40.0900003,24.16 C38.7223565,25.6122061 36.8148278,26.433855 34.8200003,26.43 C34.6200003,26.43 34.4100003,26.43 34.2100003,26.43 C34.1998856,26.4862153 34.1998856,26.5437847 34.2100003,26.6 C34.2730113,26.7573171 34.3571146,26.9053389 34.4600003,27.04 C34.6682966,27.3008831 34.9453981,27.4983179 35.2600003,27.61 C35.5150752,27.6926123 35.7818993,27.7331425 36.0500003,27.7303221 C38.0022826,27.6194118 39.8688521,26.8909945 41.3800003,25.65 C42.3179647,25.0131347 43.0840066,24.1543433 43.6100003,23.15 C43.6905564,22.9277211 43.7410041,22.6956615 43.7600003,22.46 L42.2600003,22.2 L42.2600003,22.2 C42.1077748,22.1679096 41.9918823,22.0440246 41.9700003,21.89 C41.9700003,21.59 42.1900003,21.4 42.7200003,21.04 L43.2000003,20.71 C43.9900003,20.12 44.6300003,19.66 44.9900003,19.41 C44.6019882,18.9506017 44.244553,18.4662269 43.9200003,17.96 C43.74758,17.6668736 43.5501808,17.3891763 43.3300003,17.13 C42.5683142,16.2101151 41.2655222,15.951227 40.2100003,16.51 C39.7802925,16.7915521 39.3754808,17.1093795 39.0000003,17.46 C38.6821619,17.7579446 38.3483343,18.0383597 38.0000003,18.3 C37.8578852,18.4027444 37.6602306,18.3763905 37.5500003,18.24 C37.4365362,18.1114568 37.4365362,17.9185432 37.5500003,17.79 L37.7200003,17.63 C38.2100003,17.17 39.3500003,16.1 39.3500003,15.34 C39.3500003,13.58 37.6600003,10.69 37.0600003,9.72 C35.9105023,10.9569835 34.9744327,12.3762947 34.2900003,13.92 C33.7461373,14.9511139 33.313696,16.0372455 33.0000003,17.16 L33.0000003,17.26 C32.8000003,18.02 32.3800003,19.61 32.9400003,20.2 C33.0205905,20.2899974 33.111175,20.370517 33.2100003,20.44 C33.3147359,20.5102838 33.4149348,20.5871029 33.5100003,20.67 C34.6600003,21.76 33.8600003,22.67 33.2800003,23.39 M38.2800003,10.39 C38.4000003,10.6 38.5200003,10.83 38.6500003,11.07 C40.6215427,10.0649007 42.7885506,9.50181987 45.0000003,9.42 C47.8555168,9.2376866 50.6850608,10.0582544 53.0000003,11.74 C54.5949273,13.0596321 56.0523393,14.5371463 57.3500003,16.15 C57.7000003,16.55 58.0500003,16.96 58.4100003,17.36 C59.3911888,18.4760435 60.4292316,19.5407885 61.5200003,20.55 C61.7200363,20.0630773 61.7200363,19.5169227 61.5200003,19.03 C61.2715645,18.5910886 60.857195,18.2704027 60.3700003,18.14 C60.2838683,18.1176705 60.2090575,18.0642341 60.1600003,17.99 C60.1204938,17.9078355 60.1204938,17.8121645 60.1600003,17.73 C60.3563755,17.175148 60.4012503,16.5779683 60.2900003,16 C60.1500003,15.61 59.4100003,15.45 59.1600003,15.42 C59.0615316,15.4085844 58.9734107,15.3535088 58.9200003,15.27 C58.8754487,15.1819832 58.8754487,15.0780168 58.9200003,14.99 C59.1184555,14.5703588 59.1471174,14.0902723 59.0000003,13.65 C58.5000003,12.88 57.2100003,13.26 57.1900003,13.26 C57.0797956,13.2906575 56.9616076,13.2601573 56.8800003,13.18 C56.799703,13.0942658 56.7728326,12.9714296 56.8100003,12.86 C57.0212883,12.2017098 56.8899804,11.4813924 56.4600003,10.94 C55.6000003,10.06 53.7800003,10.58 53.7600003,10.58 C53.6497956,10.6106575 53.5316076,10.5801573 53.4500003,10.5 C53.3676153,10.4153763 53.3404719,10.2912922 53.3800003,10.18 C53.3800003,10.18 53.6900003,9.18 53.0400003,8.76 C52.314772,8.40205669 51.4503441,8.47923775 50.8000003,8.96 C50.7026787,9.00984851 50.5873218,9.00984851 50.4900003,8.96 C50.3907414,8.91134667 50.3203008,8.8186617 50.3000003,8.71 C50.3000003,8.65 50.1300003,7.38 49.0100003,7.23 C48.0661805,7.26136881 47.1707751,7.65534722 46.5100003,8.33 C46.444805,8.39016125 46.358678,8.42245888 46.2700003,8.42 C46.1713151,8.42959816 46.0731895,8.39688965 46.0000003,8.33 C45.5399755,7.7144799 44.8362423,7.32797356 44.0700003,7.27 C43.4201097,7.33359279 42.8622781,7.75971414 42.6300003,8.37 C42.5879113,8.46830135 42.5031937,8.54196881 42.4000003,8.57 C42.2961529,8.58987563 42.1889694,8.56030776 42.1100003,8.49 C41.5574076,7.93896841 40.7613791,7.70883693 40.0000003,7.88 C39.0365064,8.38254005 38.3712708,9.31535646 38.2100003,10.39 M63.8400003,23.39 C61.6443945,21.7445828 59.6327504,19.8670483 57.8400003,17.79 L56.7700003,16.56 C55.5003951,14.9853893 54.0766589,13.5415533 52.5200003,12.25 C50.337652,10.6838781 47.6808087,9.92074221 45.0000003,10.09 C42.8805491,10.1544585 40.8026824,10.6944305 38.9200003,11.67 C39.5187422,12.7993327 39.8859224,14.0368658 40.0000003,15.31 C39.9973081,15.5050078 39.9600652,15.697994 39.8900003,15.88 C41.0818812,15.2501757 42.5427781,15.4514012 43.5200003,16.38 C43.8522017,15.7836915 44.3994224,15.3366157 45.0500003,15.13 C45.6732921,14.9866766 46.3279516,15.1337911 46.8300003,15.53 C47.9900003,16.34 48.2500003,16.31 49.3700003,15.7 C50.0874516,15.3401464 50.9429389,15.3936143 51.6100003,15.84 C52.2852247,16.2885698 52.7080911,17.0304405 52.7500003,17.84 C53.566725,17.69529 54.4075668,17.8785503 55.0900003,18.35 C55.628491,18.8721742 55.9162928,19.6007864 55.8800003,20.35 C56.5899424,20.1539116 57.3506483,20.3478916 57.8800003,20.86 C58.2530354,21.3529087 58.4374766,21.9629832 58.4000003,22.58 C58.4014841,22.7478373 58.4182197,22.9151924 58.4500003,23.08 L58.7400003,23.18 C59.261975,23.2523418 59.7308701,23.5371223 60.035727,23.9669516 C60.3405838,24.3967808 60.4543125,24.9334636 60.3500003,25.45 C60.3297817,25.6054268 60.1967311,25.7213095 60.0400003,25.72 L60.0400003,25.72 C59.9574862,25.7100507 59.8824229,25.6673848 59.831658,25.6015783 C59.780893,25.5357719 59.7586785,25.452337 59.7700003,25.37 C59.9100003,24.18 59.2100003,23.96 58.5900003,23.77 C58.4444333,23.7326166 58.303544,23.6789444 58.1700003,23.61 C57.8400003,23.42 57.8300003,23.02 57.8200003,22.61 C57.8560234,22.1401511 57.7249875,21.6726717 57.4500003,21.29 C56.8700003,20.64 55.7200003,21.06 55.7100003,21.06 C55.6059085,21.101318 55.4876241,21.0832803 55.4005787,21.0128149 C55.3135332,20.9423495 55.2712618,20.8304135 55.2900003,20.72 C55.4003896,20.0410223 55.2024323,19.3481716 54.7500003,18.83 C54.0928004,18.4421822 53.3075259,18.3341169 52.5700003,18.53 C52.4740312,18.5491821 52.3745608,18.5233934 52.3000003,18.46 C52.2207766,18.3982349 52.1791603,18.299869 52.1900003,18.2 C52.2729442,17.4736153 51.9404754,16.7622867 51.3300003,16.36 C50.8589196,16.0299174 50.2450463,15.9838769 49.7300003,16.24 C48.4200003,16.95 47.9100003,17 46.5300003,16.03 C46.1766837,15.7372818 45.7069537,15.626322 45.2600003,15.73 C44.7026252,15.9120448 44.246137,16.3178121 44.0000003,16.85 C44.1787541,17.0779195 44.3456421,17.3149005 44.5000003,17.56 C44.8578265,18.1429466 45.2768679,18.6860242 45.7500003,19.18 C45.8216768,19.2507477 45.8583003,19.3496314 45.8500003,19.45 C45.8411451,19.5494927 45.7902025,19.6404617 45.7100003,19.7 C45.7100003,19.7 44.8400003,20.31 43.6200003,21.22 L43.1200003,21.56 L43.0300003,21.63 L44.1100003,21.81 C44.8468938,21.4137096 45.6734593,21.2139562 46.5100003,21.23 C49.1300003,21.23 52.1100003,22.86 54.4400003,24.14 L55.7000003,24.81 C59.7000003,26.87 63.6100003,28.66 67.8300003,27.91 C69.891007,27.4502265 71.7082143,26.2423181 72.9300003,24.52 C73.9946186,22.625295 74.2019154,20.3668506 73.5000003,18.31 C73.4300003,18.04 73.3600003,17.79 73.3000003,17.55 C72.6000003,15 72.2000003,13.55 73.4400003,10.37 C72.429027,10.2482071 71.4125478,10.5484482 70.6300003,11.2 C69.6900003,12.06 69.2400003,13.55 69.3100003,15.64 C69.321344,15.7298386 69.2940944,15.8202774 69.2350071,15.8888948 C69.1759199,15.9575123 69.0905275,15.9978836 69.0000003,16 C67.8252665,16.0651505 66.7469646,16.6707722 66.0800003,17.64 C65.5612684,18.6939224 65.5320145,19.9225844 66.0000003,21 C66.6500003,20.12 67.7400003,18.93 69.1300003,19.24 C70.0006195,19.4424847 70.6774784,20.1271235 70.8700003,21 C71.1164283,22.0132357 70.7815004,23.0796154 70.0000003,23.77 C68.1800003,25.27 65.5300003,24.63 63.8500003,23.41 M32.7500003,23 C33.4000003,22.23 33.6900003,21.82 33.0300003,21.2 C32.9564653,21.128903 32.8760734,21.0652594 32.7900003,21.01 C32.65811,20.9213367 32.5372576,20.8172693 32.4300003,20.7 C31.6200003,19.84 32.0700003,18.14 32.3400003,17.13 L32.3400003,17.03 C32.6568005,15.8526097 33.0993468,14.7127178 33.6600003,13.63 C34.4190641,11.8760592 35.5166859,10.2890951 36.8900003,8.96 C36.9664336,8.89973911 37.0630761,8.87110428 37.1600003,8.88 C37.2523159,8.90046461 37.3340526,8.95377118 37.3900003,9.03 C37.3900003,9.03 37.5700003,9.31 37.7900003,9.68 C38.0622044,8.6343887 38.7995345,7.77171245 39.7900003,7.34 C40.6261464,7.08457986 41.5346428,7.2647775 42.2100003,7.82 C42.5825681,7.15916365 43.2630626,6.73056491 44.0200003,6.68 C44.878613,6.70988558 45.6877651,7.08917562 46.2600003,7.73 C47.0149289,7.03839614 48.0063155,6.66259978 49.0300003,6.68 C49.8705674,6.80264343 50.5622808,7.40447319 50.8000003,8.22 C51.588028,7.77436508 52.5519725,7.77436508 53.3400003,8.22 C53.8603355,8.60082381 54.1167954,9.24585933 54.0000003,9.88 C54.9884122,9.63471042 56.0346782,9.86392771 56.8300003,10.5 C57.343994,11.057697 57.5694284,11.8226955 57.4400003,12.57 C58.1935375,12.4110325 58.9714084,12.6988447 59.4400003,13.31 C59.6912939,13.8065774 59.7309713,14.3837044 59.5500003,14.91 C60.0979438,14.9914291 60.5718474,15.3347294 60.8200003,15.83 C60.9574817,16.4314133 60.9193008,17.0596619 60.7100003,17.64 C61.2585685,17.8391282 61.716701,18.2297838 62.0000003,18.74 C62.3225674,19.4588036 62.3225674,20.2811964 62.0000003,21 C62.7700003,21.69 63.5400003,22.32 64.3000003,22.88 C65.7800003,23.96 68.0900003,24.54 69.6400003,23.26 C70.2185094,22.7281988 70.4535693,21.9189763 70.2500003,21.16 C70.1351522,20.5094395 69.6433445,19.9900906 69.0000003,19.84 C67.8900003,19.6 67.0000003,20.72 66.2000003,21.84 C66.1346756,21.9460813 66.0137225,22.004607 65.8900003,21.99 C65.7702569,21.977573 65.6667821,21.900925 65.6200003,21.79 C64.8600003,19.97 64.8300003,18.46 65.5300003,17.28 C66.2334996,16.2134066 67.3712484,15.5110022 68.6400003,15.36 C68.6400003,13.22 69.1300003,11.66 70.1800003,10.71 C71.2224868,9.81940877 72.6134991,9.45141611 73.9600003,9.71 C74.0628011,9.73074836 74.1529136,9.79202485 74.2100003,9.88 C74.2598257,9.97024622 74.2598257,10.0797538 74.2100003,10.17 C72.8600003,13.43 73.2100003,14.65 73.9300003,17.33 C74.0000003,17.57 74.0700003,17.83 74.1400003,18.09 C74.8960661,20.327434 74.6557341,22.7817333 73.4800003,24.83 C72.1683953,26.7157344 70.1935103,28.037086 67.9500003,28.53 C67.2494898,28.648228 66.5404158,28.7084324 65.8300003,28.71 C62.2000003,28.71 58.8300003,27.14 55.3800003,25.36 L54.1100003,24.68 C51.3500003,23.17 47.1900003,20.9 44.4900003,22.32 C44.4723445,22.6622147 44.4014954,22.9995915 44.2800003,23.32 C43.7082592,24.4478964 42.8623812,25.4141229 41.8200003,26.13 C40.1993588,27.4590777 38.1935697,28.2305351 36.1000003,28.33 C35.7608,28.3336565 35.4231995,28.2830164 35.1000003,28.18 C34.6708995,28.0368008 34.2900546,27.7771339 34.0000003,27.43 C33.8634141,27.2476814 33.7492604,27.0495912 33.6600003,26.84 C33.5853799,26.661455 33.5381799,26.4726552 33.5200003,26.28 C32.6626204,26.1261699 32.0196629,25.4090249 31.9600003,24.54 C32.0373574,23.9507666 32.3165319,23.4065529 32.7500003,23 M35.8600003,21 C35.6800003,20.31 36.3600003,20 36.8600003,20 C37.2480116,19.9921859 37.625327,20.1274499 37.9200003,20.38 L38.2300003,20.66 C38.3501045,20.7644578 38.419064,20.9158257 38.419064,21.075 C38.419064,21.2341743 38.3501045,21.3855422 38.2300003,21.49 C37.9700003,21.7 37.6700003,21.91 37.4900003,22.04 C37.0600003,22.33 36.3300003,22.87 35.8200003,22.44 C35.5600003,22.23 36.0700003,21.88 35.8200003,21" id="Shape"></path>
            <path d="M115.75,114.65 C115.75,118.2 116.75,120.91 120.49,120.91 C123.97,120.91 125.79,118.58 125.79,114.53 L125.79,107.47 C125.770823,107.010483 125.720709,106.55278 125.64,106.1 C125.52,105.19 124.64,104.84 123.46,104.71 L123.46,104.05 L129.46,104.05 L129.46,104.71 C128.24,104.84 127.4,105.19 127.27,106.1 C127.19297,106.553052 127.1462,107.010732 127.13,107.47 L127.13,114.62 C127.13,120.08 123.65,122.11 120.38,122.11 C114.97,122.11 113.3,119.37 113.3,114.78 L113.3,107.22 C113.3,104.86 113.4,104.99 111.12,104.71 L111.12,104.05 L117.94,104.05 L117.94,104.71 C115.66,104.99 115.76,104.86 115.76,107.22 L115.75,114.65 Z" id="Path"></path>
            <path d="M143.8,121.8 C140.69,118.12 137.47,114.27 134.27,110.51 L134.27,119.17 C134.29092,119.505347 134.330985,119.839224 134.39,120.17 C134.49,120.89 135.16,121.17 136.45,121.25 L136.45,121.76 L131.65,121.76 L131.65,121.25 C132.59,121.16 133.24,120.89 133.34,120.17 C133.395283,119.838978 133.432007,119.505124 133.45,119.17 L133.45,110 C132.975274,109.196357 132.122872,108.690951 131.19,108.66 L131.19,108.16 L134.75,108.16 C137.66,111.7 140.69,115.3 143.61,118.84 L143.61,118.84 L143.61,110.84 C143.598961,110.484475 143.562198,110.130216 143.5,109.78 C143.39,109.08 142.73,108.78 141.44,108.7 L141.44,108.2 L146.23,108.2 L146.23,108.7 C145.31,108.8 144.65,109.08 144.55,109.78 C144.487802,110.130216 144.45104,110.484475 144.44,110.84 L144.44,121.84 L143.8,121.8 Z" id="Path"></path>
            <path d="M153.47,119.36 C153.47,121.18 153.39,121.08 155.15,121.29 L155.15,121.8 L149.89,121.8 L149.89,121.29 C151.64,121.08 151.57,121.18 151.57,119.36 L151.57,110.55 C151.57,108.73 151.64,108.83 149.89,108.61 L149.89,108.11 L155.15,108.11 L155.15,108.61 C153.39,108.83 153.47,108.73 153.47,110.55 L153.47,119.36 Z" id="Path"></path>
            <path d="M163.68,108.61 C162.6,108.61 161.82,108.93 162.46,110.81 C163.23,113.12 164.37,116.48 165.38,119.46 C166.63,116.46 167.83,113.46 169.04,110.46 C169.53,109.22 169.04,108.61 167.69,108.61 L167.69,108.11 L171.92,108.11 L171.92,108.61 C171.173016,108.591652 170.505835,109.074642 170.29,109.79 C168.65,113.79 166.99,117.79 165.35,121.79 L164.35,121.79 C163.16,118.4 161.83,114.63 160.63,111.3 C159.92,109.2 159.31,108.59 158.37,108.59 L158.37,108.09 L163.69,108.09 L163.68,108.61 Z" id="Path"></path>
            <path d="M174.93,121.29 C176.69,121.08 176.62,121.18 176.62,119.36 L176.62,110.55 C176.62,108.73 176.69,108.83 174.93,108.61 L174.93,108.11 L183.68,108.11 L183.68,111.26 L183.17,111.26 C182.97,109.8 182.58,108.73 181.17,108.73 L178.5,108.73 L178.5,114.33 L180.15,114.33 C181.38,114.33 181.91,113.84 181.95,112.62 L182.46,112.62 L182.46,116.8 L182,116.8 C182,115.64 181.51,114.96 180.2,114.96 L178.55,114.96 L178.55,119.38 C178.55,121.04 179.32,121.18 181.08,121.18 C183.92,121.18 183.78,120.38 184.68,118.28 L185.19,118.28 L184.61,121.8 L174.97,121.8 L174.93,121.29 Z" id="Path"></path>
            <path d="M192.09,115.11 L193.72,115.11 C195.42,115.11 196.2,113.83 196.2,111.61 C196.2,109.39 195.03,108.73 193.6,108.73 L192.09,108.73 L192.09,115.11 Z M188.51,108.11 L194.2,108.11 C196.2,108.11 198.2,109.11 198.2,111.44 C198.235285,113.22186 197.134268,114.829184 195.46,115.44 L197.38,118.36 C198.120169,119.572351 199.052301,120.656461 200.14,121.57 L200.14,121.82 L198.14,121.82 C196.99,121.82 196.36,119.7 193.99,115.76 L192.15,115.76 L192.15,119.38 C192.15,121.2 192.07,121.1 193.84,121.31 L193.84,121.82 L188.57,121.82 L188.57,121.31 C190.33,121.1 190.26,121.2 190.26,119.38 L190.26,110.57 C190.26,108.75 190.33,108.85 188.57,108.63 L188.51,108.11 Z" id="Shape"></path>
            <path d="M210,111 C210.008086,110.344207 209.751831,109.71277 209.289022,109.248079 C208.826213,108.783389 208.19582,108.524574 207.54,108.53 C206.977945,108.465446 206.415713,108.649458 206.000587,109.033834 C205.585462,109.418209 205.358808,109.964647 205.38,110.53 C205.38,111.9 206.75,112.72 208.71,114.19 C210.67,115.66 211.45,116.74 211.45,118.36 C211.45,120.69 209.06,121.980038 206.71,121.980038 C205.566915,121.982346 204.433687,121.768593 203.37,121.35 C203.270071,121.299527 203.213671,121.190755 203.23,121.08 L203.23,118.26 L203.74,118.26 C203.738972,119.082334 204.075549,119.869039 204.671032,120.436166 C205.266516,121.003293 206.068694,121.301117 206.89,121.26 C207.557188,121.273532 208.201462,121.016525 208.67615,120.547489 C209.150837,120.078452 209.415541,119.437302 209.41,118.77 C209.41,117.5 208.73,116.46 205.79,114.52 C204.74,113.81 203.42,113.05 203.42,110.93 C203.42,109.16 205.42,107.77 207.63,107.77 C208.557517,107.753741 209.481914,107.881942 210.37,108.15 C210.5,108.15 210.51,108.26 210.51,108.35 L210.51,111 L210,111 Z" id="Path"></path>
            <path d="M219.09,119.36 C219.09,121.18 219.01,121.08 220.77,121.29 L220.77,121.8 L215.5,121.8 L215.5,121.29 C217.27,121.08 217.19,121.18 217.19,119.36 L217.19,110.55 C217.19,108.73 217.27,108.83 215.5,108.61 L215.5,108.11 L220.77,108.11 L220.77,108.61 C219.01,108.83 219.09,108.73 219.09,110.55 L219.09,119.36 Z" id="Path"></path>
            <path d="M230.78,119.36 C230.78,121.18 230.7,121.08 232.46,121.29 L232.46,121.8 L227.19,121.8 L227.19,121.29 C228.96,121.08 228.88,121.18 228.88,119.36 L228.88,108.73 L227.12,108.73 C225.42,108.73 225.03,109.8 224.38,111.1 L223.89,111.1 L224.42,108.1 L235.25,108.1 L235.77,111.1 L235.28,111.1 C234.64,109.8 234.28,108.73 232.54,108.73 L230.78,108.73 L230.78,119.36 Z" id="Path"></path>
            <path d="M241.44,121.29 C243.21,121.08 243.13,121.18 243.13,119.36 L243.13,116.36 L240.13,110.36 C239.48,109.08 238.93,108.59 238.02,108.59 L238.02,108.09 L243.02,108.09 L243.02,108.59 C241.54,108.59 241.67,109.34 242.16,110.36 L244.53,115.27 L247.23,110.36 C247.9,109.16 247.23,108.59 246.11,108.59 L246.11,108.09 L250.11,108.09 L250.11,108.59 C249.56,108.59 249.03,108.85 248.5,109.78 L245.23,115.72 C245.053599,116.175182 244.975226,116.662461 245,117.15 L245,119.34 C245,121.16 244.92,121.06 246.68,121.27 L246.68,121.78 L241.41,121.78 L241.44,121.29 Z" id="Path"></path>
            <path d="M269,112.17 C269,109.53 267.4,109.43 267,109.43 C264.25,109.43 262.45,114.35 262.45,117.65 C262.45,118.97 262.68,121.35 264.55,121.35 C267.45,121.35 269,116.58 269,112.17 M260.12,117.17 C260.12,113.84 262.99,108.87 267.22,108.87 C270.59,108.87 271.33,111.15 271.33,113.44 C271.33,116.23 269.1,122.16 264.25,122.16 C261.01,122.16 260.12,119.55 260.12,117.16" id="Shape"></path>
            <path d="M283.15,109.66 L282.55,110.19 L279.22,110.19 C278.018524,116.258422 276.44217,122.246563 274.5,128.12 L273.36,128.12 L277,110.19 L274.59,110.19 L274.82,109.12 L277.2,109.12 C278.55,103.72 283.01,103.12 284.08,103.12 C284.83457,103.077711 285.586846,103.236448 286.26,103.58 L285.95,105.25 L285.32,105.56 C284.892773,104.706699 284.042617,104.146282 283.09,104.09 C281.56,104.09 280.43,105.09 279.82,107.86 L279.54,109.08 L283.26,109.08 L283.15,109.66 Z" id="Path"></path>
            <path d="M298.39,118.64 C298.39,120.99 298.29,120.87 300.57,121.14 L300.57,121.81 L293.75,121.81 L293.75,121.14 C296.04,120.87 295.93,120.99 295.93,118.64 L295.93,107.22 C295.93,104.86 296.04,104.99 293.75,104.72 L293.75,104.05 L300.39,104.05 C304.61,104.05 306.69,105.73 306.69,108.77 C306.69,112.42 303.39,114.4 299.51,114.17 L299.51,113.67 C302.68,113.67 304.15,111.81 304.15,109.02 C304.15,106.23 302.78,104.86 299.94,104.86 L298.39,104.86 L298.39,118.64 Z" id="Path"></path>
            <path d="M310.19,121.29 C311.94,121.08 311.87,121.18 311.87,119.36 L311.87,110.55 C311.87,108.73 311.94,108.83 310.19,108.61 L310.19,108.11 L318.93,108.11 L318.93,111.26 L318.43,111.26 C318.23,109.8 317.84,108.73 316.43,108.73 L313.76,108.73 L313.76,114.33 L315.41,114.33 C316.64,114.33 317.17,113.84 317.21,112.62 L317.72,112.62 L317.72,116.8 L317.21,116.8 C317.21,115.64 316.72,114.96 315.41,114.96 L313.76,114.96 L313.76,119.38 C313.76,121.04 314.53,121.18 316.29,121.18 C319.12,121.18 318.99,120.38 319.89,118.28 L320.4,118.28 L319.81,121.8 L310.19,121.8 L310.19,121.29 Z" id="Path"></path>
            <path d="M335.61,121.8 C332.5,118.12 329.27,114.27 326.08,110.51 L326.08,119.17 C326.096311,119.505751 326.136412,119.839922 326.2,120.17 C326.3,120.89 326.96,121.17 328.25,121.25 L328.25,121.76 L323.46,121.76 L323.46,121.25 C324.4,121.16 325.04,120.89 325.14,120.17 C325.203589,119.839922 325.24369,119.505751 325.26,119.17 L325.26,110 C324.785274,109.196357 323.932872,108.690951 323,108.66 L323,108.16 L326.56,108.16 C329.47,111.7 332.5,115.3 335.42,118.84 L335.42,118.84 L335.42,110.84 C335.406085,110.484199 335.365976,110.129907 335.3,109.78 C335.2,109.08 334.54,108.78 333.24,108.7 L333.24,108.2 L338.04,108.2 L338.04,108.7 C337.12,108.8 336.45,109.08 336.35,109.78 C336.292771,110.130896 336.256042,110.48483 336.24,110.84 L336.24,121.84 L335.61,121.8 Z" id="Path"></path>
            <path d="M353.48,121.8 C350.37,118.12 347.14,114.27 343.95,110.51 L343.95,119.17 C343.963371,119.505486 344.000127,119.83963 344.06,120.17 C344.16,120.89 344.83,121.17 346.12,121.25 L346.12,121.76 L341.32,121.76 L341.32,121.25 C342.26,121.16 342.91,120.89 343.01,120.17 C343.073589,119.839922 343.11369,119.505751 343.13,119.17 L343.13,110 C342.648758,109.193227 341.788987,108.687923 340.85,108.66 L340.85,108.16 L344.41,108.16 C347.33,111.7 350.41,115.3 353.28,118.84 L353.28,118.84 L353.28,110.84 C353.263958,110.48483 353.227229,110.130896 353.17,109.78 C353.06,109.08 352.4,108.78 351.11,108.7 L351.11,108.2 L355.9,108.2 L355.9,108.7 C354.99,108.8 354.31,109.08 354.22,109.78 C354.150229,110.129587 354.106774,110.483914 354.09,110.84 L354.09,121.84 L353.48,121.8 Z" id="Path"></path>
            <path d="M366.22,111 C366.23093,110.341625 365.97421,109.707001 365.508605,109.241396 C365.042999,108.775791 364.408375,108.51907 363.75,108.53 C363.189566,108.468588 362.630138,108.654015 362.217339,109.038014 C361.80454,109.422013 361.579209,109.966594 361.6,110.53 C361.6,111.9 362.97,112.72 364.92,114.19 C366.87,115.66 367.66,116.74 367.66,118.36 C367.66,120.69 365.28,121.980032 362.93,121.980032 C361.783686,121.982167 360.647215,121.768442 359.58,121.35 C359.486116,121.294513 359.434829,121.187995 359.45,121.08 L359.45,118.26 L359.95,118.26 C359.948827,119.084163 360.286765,119.872512 360.884473,120.439956 C361.48218,121.007399 362.287009,121.303956 363.11,121.26 C363.776378,121.270755 364.41904,121.012848 364.893115,120.544417 C365.367189,120.075986 365.632774,119.436459 365.63,118.77 C365.63,117.5 364.95,116.46 362.01,114.52 C360.96,113.81 359.64,113.05 359.64,110.93 C359.64,109.16 361.64,107.77 363.85,107.77 C364.777459,107.754711 365.701707,107.882891 366.59,108.15 C366.635424,108.157288 366.675955,108.182676 366.702337,108.220364 C366.728719,108.258053 366.7387,108.304825 366.73,108.35 L366.73,111 L366.22,111 Z" id="Path"></path>
            <path d="M374.1,121.29 C375.87,121.08 375.78,121.18 375.78,119.36 L375.78,116.36 L372.78,110.36 C372.14,109.08 371.59,108.59 370.69,108.59 L370.69,108.09 L375.69,108.09 L375.69,108.59 C374.2,108.59 374.35,109.34 374.83,110.36 L377.2,115.27 L379.9,110.36 C380.57,109.16 379.9,108.59 378.79,108.59 L378.79,108.09 L382.79,108.09 L382.79,108.59 C382.25,108.59 381.71,108.85 381.19,109.78 L377.92,115.72 C377.743599,116.175182 377.665226,116.662461 377.69,117.15 L377.69,119.34 C377.69,121.16 377.61,121.06 379.37,121.27 L379.37,121.78 L374.1,121.78 L374.1,121.29 Z" id="Path"></path>
            <path d="M386.17,121.29 C387.93,121.08 387.86,121.18 387.86,119.36 L387.86,110.55 C387.86,108.73 387.93,108.83 386.17,108.61 L386.17,108.11 L391.44,108.11 L391.44,108.61 C389.67,108.83 389.75,108.73 389.75,110.55 L389.75,119.68 C389.75,121.04 390.51,121.18 392.26,121.18 C395.09,121.18 394.98,120.38 395.87,118.28 L396.36,118.28 L395.78,121.8 L386.17,121.8 L386.17,121.29 Z" id="Path"></path>
            <path d="M402.08,108.61 C401,108.61 400.22,108.93 400.86,110.81 C401.63,113.12 402.77,116.48 403.79,119.46 C405.03,116.46 406.22,113.46 407.44,110.46 C407.93,109.22 407.44,108.61 406.09,108.61 L406.09,108.11 L410.31,108.11 L410.31,108.61 C409.565609,108.592751 408.901896,109.076196 408.69,109.79 C407.05,113.79 405.39,117.79 403.74,121.79 L402.74,121.79 C401.55,118.4 400.21,114.63 399.01,111.3 C398.29,109.2 397.68,108.59 396.75,108.59 L396.75,108.09 L402.07,108.09 L402.08,108.61 Z" id="Path"></path>
            <path d="M418.64,116.52 L416.55,110.16 L416.55,110.16 L414.21,116.52 L418.64,116.52 Z M413.9,117.27 L412.99,119.88 C412.842587,120.20409 412.878609,120.582117 413.084578,120.872533 C413.290547,121.16295 413.635396,121.321951 413.99,121.29 L413.99,121.8 L410.43,121.8 L410.43,121.29 C411.054269,121.258633 411.603965,120.868777 411.84,120.29 C412.68,118.57 414.97,112.17 416.6,107.84 L417.69,107.84 C419.02,111.78 421.02,117.84 421.69,119.54 C422.12,120.64 422.44,121.26 423.28,121.26 L423.28,121.77 L418.72,121.77 L418.72,121.26 C419.95,121.26 420.07,120.62 419.72,119.76 L418.88,117.24 L413.9,117.27 Z" id="Shape"></path>
            <path d="M438,121.8 C434.88,118.12 431.65,114.27 428.46,110.51 L428.46,119.17 C428.471903,119.506107 428.512044,119.840619 428.58,120.17 C428.67,120.89 429.34,121.17 430.64,121.25 L430.64,121.76 L425.84,121.76 L425.84,121.25 C426.78,121.16 427.43,120.89 427.52,120.17 C427.579874,119.83963 427.61663,119.505486 427.63,119.17 L427.63,110 C427.156652,109.194983 426.303417,108.689082 425.37,108.66 L425.37,108.16 L428.93,108.16 C431.85,111.7 434.88,115.3 437.8,118.84 L437.8,118.84 L437.8,110.84 C437.788961,110.484475 437.752198,110.130216 437.69,109.78 C437.59,109.08 436.92,108.78 435.63,108.7 L435.63,108.2 L440.43,108.2 L440.43,108.7 C439.51,108.8 438.85,109.08 438.75,109.78 C438.680229,110.129587 438.636774,110.483914 438.62,110.84 L438.62,121.84 L438,121.8 Z" id="Path"></path>
            <path d="M447.25,119.36 C447.25,121.18 447.17,121.08 448.93,121.29 L448.93,121.8 L443.67,121.8 L443.67,121.29 C445.43,121.08 445.35,121.18 445.35,119.36 L445.35,110.55 C445.35,108.73 445.43,108.83 443.67,108.61 L443.67,108.11 L448.93,108.11 L448.93,108.61 C447.17,108.83 447.25,108.73 447.25,110.55 L447.25,119.36 Z" id="Path"></path>
            <path d="M460.17,116.52 L458.09,110.16 L458.09,110.16 L455.75,116.52 L460.17,116.52 Z M455.43,117.27 L454.53,119.88 C454.382587,120.20409 454.418609,120.582117 454.624578,120.872533 C454.830547,121.16295 455.175396,121.321951 455.53,121.29 L455.53,121.8 L452,121.8 L452,121.29 C452.623431,121.256222 453.171968,120.867189 453.41,120.29 C454.24,118.57 456.54,112.17 458.17,107.84 L459.26,107.84 C460.59,111.78 462.59,117.84 463.26,119.54 C463.69,120.64 464,121.26 464.84,121.26 L464.84,121.77 L460.29,121.77 L460.29,121.26 C461.52,121.26 461.64,120.62 461.29,119.76 L460.45,117.24 L455.43,117.27 Z" id="Shape"></path>
            <rect id="Rectangle" x="111.11" y="94.37" width="353.68" height="1.53"></rect>
            <path d="M119.85,72.37 C119.65,70.61 118.69,69.21 116.69,69.21 C115.962016,69.1259856 115.234148,69.3682336 114.701702,69.871742 C114.169256,70.3752503 113.886755,71.0884613 113.93,71.82 C113.93,73.57 115.68,74.63 118.19,76.51 C120.85,78.51 121.71,79.77 121.71,81.85 C121.71,84.85 118.64,86.500002 115.63,86.500002 C114.161934,86.5006034 112.706778,86.2258536 111.34,85.69 C111.217729,85.6184832 111.150621,85.4803185 111.17,85.34 L111.17,81.73 L111.82,81.73 C111.81958,82.7810368 112.244483,83.787516 112.997967,84.5202786 C113.75145,85.2530413 114.769384,85.6497209 115.82,85.62 C116.675473,85.6361486 117.50136,85.3068783 118.111065,84.7065827 C118.720769,84.1062871 119.062843,83.2856206 119.06,82.43 C119.06,80.8 118.18,79.43 114.41,76.99 C113.06,76.08 111.41,75.1 111.41,72.37 C111.41,70.11 113.92,68.37 116.8,68.37 C117.990263,68.3492697 119.176873,68.5077091 120.32,68.84 C120.438437,68.8780405 120.510887,68.9973706 120.49,69.12 L120.49,72.41 L119.85,72.37 Z" id="Path"></path>
            <path d="M147.5,81.73 L146.75,84.87 C146.75,85.42 146.3,85.52 145.59,85.74 C144.011383,86.2542617 142.360235,86.5108819 140.7,86.5 C135.56,86.5 130.91,84.04 130.91,77.31 C130.91,73.45 134.2,68.31 140.91,68.31 C142.555993,68.2856026 144.191642,68.574047 145.73,69.16 C146.43,69.39 146.73,69.74 146.73,70.16 L146.73,73.4 L146.08,73.4 C146,71.4 144.72,69.21 140.73,69.21 C136.04,69.21 133.78,72.59 133.73,77.11 C133.73,82.11 135.99,85.62 141.11,85.62 C143.668245,85.7514526 145.999949,84.1601671 146.81,81.73 L147.5,81.73 Z" id="Path"></path>
            <path d="M160.9,83.06 C160.9,85.39 160.8,85.27 163.06,85.54 L163.06,86.2 L156.31,86.2 L156.31,85.54 C158.56,85.27 158.46,85.39 158.46,83.06 L158.46,71.76 C158.46,69.43 158.56,69.56 156.31,69.28 L156.31,68.63 L163.06,68.63 L163.06,69.28 C160.8,69.56 160.9,69.43 160.9,71.76 L160.9,76.11 L169.71,76.11 L169.71,71.76 C169.71,69.43 169.81,69.56 167.55,69.28 L167.55,68.63 L174.3,68.63 L174.3,69.28 C172.04,69.56 172.14,69.43 172.14,71.76 L172.14,83.06 C172.14,85.39 172.04,85.27 174.3,85.54 L174.3,86.2 L167.55,86.2 L167.55,85.54 C169.81,85.27 169.71,85.39 169.71,83.06 L169.71,77.14 L160.9,77.14 L160.9,83.06 Z" id="Path"></path>
            <path d="M198.69,77.64 C198.69,71.64 195.45,69.21 192.39,69.21 C188.12,69.21 186.39,73.02 186.39,76.43 C186.39,82.51 189.5,85.62 192.74,85.62 C197.4,85.62 198.74,81 198.74,77.62 M183.56,77.72 C183.521699,75.2092824 184.503568,72.7904319 186.281004,71.0167658 C188.05844,69.2430997 190.47937,68.2663679 192.99,68.31 C197.708454,68.342204 201.534801,72.1418872 201.6,76.86 C201.66912,79.430271 200.681245,81.9164504 198.866916,83.7383394 C197.052587,85.5602284 194.570536,86.5584321 192,86.5 C189.700734,86.4898338 187.501991,85.5561727 185.897918,83.9088481 C184.293845,82.2615235 183.419002,80.038723 183.47,77.74" id="Shape"></path>
            <path d="M226.14,77.64 C226.14,71.64 222.9,69.21 219.84,69.21 C215.57,69.21 213.84,73.02 213.84,76.43 C213.84,82.51 216.95,85.62 220.19,85.62 C224.85,85.62 226.19,81 226.19,77.62 M211.01,77.72 C210.971699,75.2092824 211.953568,72.7904319 213.731004,71.0167658 C215.50844,69.2430997 217.92937,68.2663679 220.44,68.31 C225.146616,68.3694108 228.946085,72.1733185 229,76.88 C229.062721,79.4309465 228.084571,81.8975658 226.290639,83.7122477 C224.496707,85.5269296 222.041499,86.5333808 219.49,86.5 C217.197694,86.4791663 215.009289,85.5408199 213.413884,83.8946778 C211.818479,82.2485357 210.949082,80.031835 211,77.74" id="Shape"></path>
            <path d="M238.21,85.54 C240.46,85.27 240.36,85.39 240.36,83.06 L240.36,71.77 C240.36,69.43 240.46,69.56 238.21,69.28 L238.21,68.63 L245,68.63 L245,69.28 C242.75,69.56 242.85,69.43 242.85,71.77 L242.85,83.46 C242.85,85.22 243.85,85.39 246.06,85.39 C249.7,85.39 249.55,84.39 250.7,81.68 L251.33,81.68 L250.58,86.19 L238.21,86.19 L238.21,85.54 Z" id="Path"></path>
            <path d="M289.19,77.64 C289.19,71.64 285.96,69.21 282.89,69.21 C278.63,69.21 276.89,73.02 276.89,76.43 C276.89,82.51 280,85.62 283.24,85.62 C287.91,85.62 289.24,81 289.24,77.62 M274.06,77.72 C274.024434,75.208352 275.008565,72.7895708 276.787571,71.0162185 C278.566577,69.2428661 280.988478,68.2664396 283.5,68.31 C288.216769,68.3423013 292.040197,72.1434998 292.1,76.86 C292.162721,79.4109465 291.184571,81.8775658 289.390639,83.6922477 C287.596707,85.5069296 285.141499,86.5133808 282.59,86.48 C280.284714,86.4830877 278.075164,85.5583783 276.459248,83.9142458 C274.843333,82.2701133 273.957009,80.0448873 274,77.74" id="Shape"></path>
            <path d="M305.85,77.11 L308.24,77.11 C309.82,77.11 310.5,76.48 310.55,74.93 L311.2,74.93 L311.2,80.3 L310.55,80.3 C310.47,78.82 309.92,77.91 308.24,77.91 L305.85,77.91 L305.85,83.06 C305.85,85.39 305.75,85.27 308.01,85.54 L308.01,86.19 L301.26,86.19 L301.26,85.54 C303.52,85.27 303.42,85.39 303.42,83.06 L303.42,71.77 C303.42,69.43 303.52,69.56 301.26,69.28 L301.26,68.63 L312.48,68.63 L312.48,72.63 L311.82,72.63 C311.5,70.77 311.07,69.39 309.26,69.39 L305.85,69.39 L305.85,77.11 Z" id="Path"></path>
            <path d="M340.1,82.63 C340.1,85.37 340.73,85.39 343.1,85.39 C347.1,85.39 350.16,83.28 350.16,76.96 C350.16,72.19 347.6,69.43 342.78,69.43 L340.1,69.43 L340.1,82.63 Z M335.51,68.63 L343.84,68.63 C349.91,68.63 353.03,71.74 353.03,76.91 C353.03,82.08 349.34,86.2 343.11,86.2 L335.51,86.2 L335.51,85.54 C337.77,85.27 337.67,85.39 337.67,83.06 L337.67,71.76 C337.67,69.43 337.77,69.56 335.51,69.28 L335.51,68.63 Z" id="Shape"></path>
            <path d="M362.23,85.54 C364.49,85.27 364.39,85.39 364.39,83.06 L364.39,71.77 C364.39,69.43 364.49,69.56 362.23,69.28 L362.23,68.63 L373.45,68.63 L373.45,72.63 L372.8,72.63 C372.55,70.77 372.04,69.39 370.24,69.39 L366.83,69.39 L366.83,76.57 L368.93,76.57 C370.51,76.57 371.19,75.94 371.24,74.39 L371.9,74.39 L371.9,79.73 L371.24,79.73 C371.19,78.25 370.62,77.37 368.93,77.37 L366.83,77.37 L366.83,83.04 C366.83,85.18 367.83,85.35 370.06,85.35 C373.7,85.35 373.53,84.35 374.68,81.64 L375.33,81.64 L374.58,86.15 L362.23,86.15 L362.23,85.54 Z" id="Path"></path>
            <path d="M392.34,72.37 C392.14,70.61 391.19,69.21 389.18,69.21 C388.452814,69.1295905 387.727062,69.3730581 387.195486,69.8757438 C386.663911,70.3784294 386.380309,71.089459 386.42,71.82 C386.42,73.57 388.18,74.63 390.69,76.51 C393.35,78.51 394.2,79.77 394.2,81.85 C394.2,84.85 391.14,86.5000338 388.13,86.5000338 C386.661756,86.50251 385.206248,86.2276937 383.84,85.69 C383.713875,85.6213126 383.64251,85.4825471 383.66,85.34 L383.66,81.73 L384.31,81.73 C384.312348,82.7801702 384.738121,83.7850142 385.490986,84.5171745 C386.24385,85.2493348 387.260173,85.6469301 388.31,85.62 C389.166279,85.6389314 389.99378,85.3105659 390.604099,84.7096649 C391.214419,84.108764 391.555613,83.2864697 391.55,82.43 C391.55,80.8 390.67,79.43 386.91,76.99 C385.55,76.08 383.91,75.1 383.91,72.37 C383.91,70.11 386.42,68.37 389.31,68.37 C390.497017,68.3485957 391.680432,68.5070586 392.82,68.84 C392.942446,68.8740174 393.019888,68.9944829 393,69.12 L393,72.41 L392.34,72.37 Z" id="Path"></path>
            <path d="M407.8,83.06 C407.8,85.39 407.7,85.27 409.96,85.54 L409.96,86.2 L403.21,86.2 L403.21,85.54 C405.47,85.27 405.37,85.39 405.37,83.06 L405.37,71.76 C405.37,69.43 405.47,69.56 403.21,69.28 L403.21,68.63 L410,68.63 L410,69.28 C407.74,69.56 407.84,69.43 407.84,71.76 L407.8,83.06 Z" id="Path"></path>
            <path d="M419.17,77.31 C419.17,73.45 422.43,68.31 429.17,68.31 C430.815993,68.2856026 432.451642,68.574047 433.99,69.16 C434.7,69.39 434.99,69.74 434.99,70.16 L434.99,73.4 L434.34,73.4 C434.26,71.4 432.98,69.21 428.99,69.21 C423.75,69.21 422.04,72.82 421.99,77.11 C421.99,81.11 423.99,85.62 429.06,85.62 C432.2,85.62 432.48,84.46 432.48,82.51 L432.48,81 C432.48,78.67 432.58,78.8 429.82,78.52 L429.82,77.87 L437.07,77.87 L437.07,78.52 C434.81,78.8 434.91,78.67 434.91,81 L434.91,85.37 C432.998567,86.1230881 430.964393,86.5163618 428.91,86.53 C423.77,86.53 419.13,84.07 419.13,77.34" id="Path"></path>
            <path d="M461.4,86.19 C457.4,81.48 453.27,76.53 449.18,71.72 L449.18,82.81 C449.198523,83.2629424 449.248645,83.714039 449.33,84.16 C449.45,85.07 450.33,85.42 451.96,85.54 L451.96,86.19 L445.81,86.19 L445.81,85.54 C447.02,85.42 447.81,85.07 447.97,84.16 C448.051355,83.714039 448.101477,83.2629424 448.12,82.81 L448.12,71 C447.50707,69.9690459 446.408921,69.3237422 445.21,69.29 L445.21,68.64 L449.78,68.64 C453.52,73.18 457.41,77.8 461.15,82.34 L461.2,82.34 L461.2,72 C461.181976,71.5437084 461.131852,71.0892518 461.05,70.64 C460.92,69.74 460.05,69.39 458.41,69.26 L458.41,68.61 L464.56,68.61 L464.56,69.26 C463.38,69.39 462.56,69.74 462.4,70.64 C462.318149,71.0892518 462.268025,71.5437084 462.25,72 L462.25,86.19 L461.4,86.19 Z" id="Path"></path>
            <path d="M174,59.92 L172.1,59.92 L156.1,16.59 L140.55,59.92 L138.91,59.92 L121,11.46 C117.62,2.46 116,2.14 111.06,2.14 L111.06,0.4 L132.78,0.4 L132.78,2.14 C127.96,2.65 126.63,4.5 128.37,9.21 L142.09,46.5 L154.59,12.39 L153.25,8.6 C151.51,3.6 149.25,2.14 145.06,2.14 L145.06,0.4 L166.57,0.4 L166.57,2.14 C161.24,2.14 159.71,3.99 161.65,9.31 L175.38,46.5 L187.38,13.62 C189.94,6.62 189.38,2.04 182.97,2.04 L182.97,0.4 L200.8,0.4 L200.8,2.14 C196.19,2.45 193.63,5.42 190.45,14.03 L174,59.92 Z" id="Path"></path>
            <path d="M216.2,35.23 C216.51,27.23 211.08,23.96 206.47,23.96 C200.42,23.96 196.84,28.47 196.47,35.23 L216.2,35.23 Z M196.43,37 C196.22,53.29 205.96,57.39 210.87,57.39 C215.78,57.39 218.45,55.65 223.68,49.81 L223.68,52.47 C219.27,58.1 215.07,60.26 208.68,60.26 C197.31,60.26 189.12,52.37 189.12,41.41 C189.12,30.45 197.12,21.84 207.35,21.84 C215.75,21.84 223.53,28.6 223.02,37 L196.43,37 Z" id="Shape"></path>
            <path d="M241.32,7.47 C241.347794,9.92939554 239.379332,11.9470689 236.92,11.98 C234.43825,11.9582767 232.431724,9.95175042 232.41,7.47 C232.423187,6.28711084 232.905773,5.15791677 233.751578,4.33086541 C234.597384,3.50381404 235.737113,3.04666459 236.92,3.06 C238.091152,3.05191055 239.216538,3.51426025 240.043746,4.34334855 C240.870955,5.17243686 241.330748,6.29887001 241.32,7.47 M240.32,52.34 C240.32,55.92 241.24,57.34 246.32,57.34 L246.32,59.1 L226.47,59.1 L226.47,57.36 C232,57.36 233.33,56.64 233.33,52.36 L233.33,30.11 C233.33,25.11 231.8,24.68 226.47,24.68 L226.47,22.94 L238.56,21.81 L240.3,21.81 L240.32,52.34 Z" id="Shape"></path>
            <path d="M259.91,22.73 L272.51,22.73 L272.51,25.4 L259.91,25.4 L259.91,48.75 C259.91,53.75 262.47,56.33 266.46,56.33 C269.13,56.33 271.07,55.33 273.22,52.85 L274.35,54.18 C271.17,58.18 267.49,60.18 263.35,60.18 C257.2,60.18 252.9,55.87 252.9,49.62 L252.9,25.4 L246.04,25.4 L246.04,23.65 C250.95,21.2 255.04,16.79 258.12,10.54 L259.87,10.54 L259.91,22.73 Z" id="Path"></path>
            <path d="M308,24.68 L284.93,57.36 L296.2,57.36 C303.37,57.36 306.95,55 307.2,48.04 L308.94,48.04 L308,59.1 L276.63,59.1 L276.63,57.36 L299.68,24.68 L289.54,24.68 C283.29,24.68 278.99,28.06 278.37,33.49 L276.63,33.49 L277.55,22.94 L308,22.94 L308,24.68 Z" id="Path"></path>
            <path d="M375.52,52.34 C375.52,56.03 376.75,57.34 381.67,57.34 L381.67,59.1 L362.41,59.1 L362.41,57.36 C367.53,57.36 368.56,56.36 368.56,50.36 L368.56,33.18 C368.56,28.47 365.49,25.7 360.67,25.7 C356.78,25.7 353.6,27.86 350.43,32.7 L350.43,52.13 C350.43,55.92 351.55,57.36 356.43,57.36 L356.43,59.1 L337.42,59.1 L337.42,57.36 C342.34,57.36 343.42,56.85 343.42,50.36 L343.42,33.59 C343.42,28.16 339.63,25.7 335.74,25.7 C331.64,25.7 327.64,28.57 325.29,32.7 L325.29,52.44 C325.29,56.13 326.83,57.44 331.44,57.44 L331.44,59.1 L312.22,59.1 L312.22,57.36 C316.52,57.36 318.36,56.95 318.36,51.52 L318.36,30 C318.36,26 316.62,24.67 313.36,24.67 L311.11,24.67 L311.11,22.94 L323.61,21.81 L325.35,21.81 L325.35,29.39 L325.55,29.39 C328.55,24.78 333.65,21.81 338.46,21.81 C343.643346,21.7132205 348.268078,25.0503618 349.81,30 C353.7,24.57 358.31,21.8 363.23,21.8 C368.35,21.8 375.52,24.8 375.52,34.09 L375.52,52.34 Z" id="Path"></path>
            <path d="M405.33,39.43 C398.47,42.43 392.33,42.3 392.33,49.67 C392.33,53.36 394.89,56.33 397.86,56.33 C400.01,56.33 403.86,54.8 405.34,51.72 L405.33,39.43 Z M412.33,50.7 C412.33,54.9 412.74,56.33 414.33,56.33 C415.46,56.33 415.97,55.41 416.79,52.85 L418.53,52.85 C418.23,57.36 415.53,60.23 411.47,60.23 C408.39,60.23 406.55,58.69 405.32,55.1 C401.73,59 399.38,60.23 395.59,60.23 C389.95,60.23 385.24,55.92 385.24,50.6 C385.24,40.25 399.38,40.66 405.32,37.18 L405.32,34.51 C405.32,29.39 402.32,25.7 397.23,25.7 C393.13,25.7 389.13,28.26 387.6,33.49 L385.76,33 C387.3,26.24 392.63,21.83 399.18,21.83 C405.23,21.83 412.3,25.31 412.3,35.15 L412.33,50.7 Z" id="Shape"></path>
            <path d="M458.89,51.21 C458.89,55.92 459.89,57.36 465.04,57.36 L465.04,59.1 L445.68,59.1 L445.68,57.36 C450.6,57.36 451.93,56.23 451.93,52.85 L451.93,33.85 C451.93,28.01 447.73,25.55 443.83,25.55 C440.25,25.55 437.07,27.8 433.49,32.62 L433.49,50.39 C433.49,55.92 434.21,57.39 439.64,57.39 L439.64,59.1 L420.48,59.1 L420.48,57.36 C425.29,57.36 426.48,56.95 426.48,50.36 L426.48,30 C426.48,25.59 425.36,24.67 420.48,24.67 L420.48,22.94 L431.75,21.81 L433.49,21.81 L433.49,29.08 C437.79,24.17 441.99,21.81 446.6,21.81 C452.6,21.81 458.89,26.11 458.89,34.81 L458.89,51.21 Z" id="Path"></path>
        </g>
    </g>
</svg>